<?xml version="1.0" standalone="no"?>
<!DOCTYPE svg PUBLIC "-//W3C//DTD SVG 20010904//EN"
 "http://www.w3.org/TR/2001/REC-SVG-20010904/DTD/svg10.dtd">
<svg version="1.0" xmlns="http://www.w3.org/2000/svg"
 width="100pt" height="100pt" viewBox="0 0 629.000000 612.000000"
 preserveAspectRatio="xMidYMid meet">
<g transform="translate(0.000000,612.000000) scale(0.100000,-0.100000)"
fill="#0678be" stroke="none">
<path d="M2775 6113 c-893 -74 -1661 -496 -2187 -1201 -308 -413 -504 -905
-570 -1432 -17 -137 -17 -543 0 -680 96 -766 465 -1449 1048 -1940 430 -362
924 -582 1504 -671 211 -33 610 -33 820 0 418 64 748 179 1096 382 l101 59
199 -113 c472 -269 807 -445 919 -483 65 -23 98 -28 180 -28 89 -1 107 2 158
26 199 93 295 332 217 540 -37 99 -30 91 -662 785 l-130 143 65 108 c208 347
334 701 398 1122 30 197 33 590 6 785 -49 345 -143 657 -283 936 -151 303
-309 522 -553 772 -247 252 -499 436 -806 587 -350 173 -688 267 -1070 300
-111 9 -357 11 -450 3z m230 -718 c43 -120 133 -269 246 -410 35 -44 195 -213
354 -375 160 -162 335 -345 389 -405 328 -363 510 -688 588 -1048 19 -86 22
-134 22 -307 1 -174 -3 -220 -21 -304 -12 -54 -24 -100 -27 -103 -3 -3 -40 7
-83 22 -112 39 -284 46 -404 16 -270 -68 -469 -256 -550 -521 -18 -59 -23 -99
-24 -190 0 -138 20 -225 76 -336 22 -42 38 -78 36 -80 -13 -13 -222 -87 -307
-108 -493 -123 -1045 57 -1461 476 -267 268 -434 595 -480 935 -16 125 -6 381
21 508 61 288 204 573 429 855 115 145 209 247 526 569 287 294 417 442 503
574 51 79 119 221 128 267 8 37 15 31 39 -35z"/>
<path d="M3135 4324 c-469 -55 -808 -231 -1002 -522 -221 -331 -242 -835 -50
-1217 109 -218 318 -410 540 -495 166 -65 375 -95 563 -84 l100 7 13 44 c19
64 76 177 127 254 57 86 212 234 293 279 l62 35 -6 105 c-32 521 -191 772
-598 945 -92 40 -128 72 -141 129 -14 57 40 161 200 383 52 73 94 134 94 137
0 6 -142 6 -195 0z"/>
</g>
</svg>
