<svg version="1.1" id="Layer_1" xmlns="http://www.w3.org/2000/svg" xmlns:xlink="http://www.w3.org/1999/xlink" x="0px" y="0px"
	 width="100%" viewBox="0 0 100 100" enable-background="new 0 0 100 100" xml:space="preserve">

<path fill="#358FC8" opacity="1.000000" stroke="none" 
	d="
M44.285820,89.665779 
	C34.819733,74.392349 24.710779,59.780354 19.973825,42.578651 
	C14.512372,22.746012 28.297110,3.680342 48.560638,2.936399 
	C57.659172,2.602361 65.696777,4.493319 72.585197,10.810706 
	C78.455246,16.194143 82.107155,22.565083 83.003525,30.499844 
	C83.920799,38.619675 82.066612,46.288368 78.201126,53.249298 
	C70.366409,67.357994 62.113365,81.235817 53.929321,95.147949 
	C52.234165,98.029564 50.022327,97.913658 48.063969,95.231720 
	C46.814995,93.521286 45.681419,91.726585 44.285820,89.665779 
M36.066288,30.868540 
	C36.048668,33.379963 35.568573,35.995262 36.104733,38.382298 
	C37.431759,44.290344 41.365913,48.480133 47.115337,49.793423 
	C53.402283,51.229496 59.470875,49.657162 63.365314,43.993050 
	C66.970955,38.748974 67.401222,32.992359 64.074913,27.308121 
	C60.841133,21.782000 55.946354,19.567160 49.592930,19.967268 
	C42.803898,20.394812 39.006863,24.456650 36.066288,30.868540 
z"/>

<path fill="#348FC8" opacity="1.000000" stroke="none" 
	d="
M43.000858,34.164566 
	C44.194527,27.660894 45.520901,26.802956 53.553314,27.157270 
	C53.779556,28.481068 54.018322,29.878145 54.312424,31.599009 
	C55.555161,31.800581 56.958508,32.028206 59.261211,32.401703 
	C58.821846,34.992386 58.980961,37.927509 57.801445,40.153233 
	C55.736828,44.049152 51.494080,43.406532 48.069347,42.820633 
	C43.773239,42.085659 42.659267,38.593502 43.000858,34.164566 
z"/>
</svg>