<svg version="1.1" id="Layer_1" xmlns="http://www.w3.org/2000/svg" xmlns:xlink="http://www.w3.org/1999/xlink" x="0px" y="0px"
	 width="100%" viewBox="0 0 90 90" enable-background="new 0 0 90 90" xml:space="preserve">

<path fill="#358FC8" opacity="1.000000" stroke="none" 
	d="
M87.909531,71.693375 
	C87.276459,72.436119 86.707596,72.940628 86.138016,72.941437 
	C59.003696,72.980095 31.869316,72.975166 4.367751,72.975166 
	C4.367751,56.274834 4.367751,39.794277 4.367751,22.648706 
	C5.687485,23.644629 6.616829,24.211874 7.385885,24.946842 
	C16.024490,33.202549 24.451513,41.692905 33.349880,49.657101 
	C36.971493,52.898506 40.155464,57.868580 46.118900,56.894344 
	C48.697750,56.473042 51.611946,55.512173 53.489273,53.816887 
	C64.297806,44.056446 74.838997,34.000050 85.483093,24.057125 
	C85.933441,23.636446 86.505463,23.346027 87.973412,22.345911 
	C87.973412,39.184151 87.973412,55.202152 87.909531,71.693375 
z"/>
<path fill="#358FC8" opacity="1.000000" stroke="none" 
	d="
M45.000000,18.999796 
	C58.084713,18.999796 70.669426,18.999796 84.153076,18.999796 
	C77.183128,25.692816 70.940514,31.733671 64.643829,37.717644 
	C60.450714,41.702518 56.209251,45.637783 51.935940,49.536625 
	C48.295277,52.858246 43.907787,53.103634 40.422882,49.852058 
	C29.779591,39.921371 19.262114,29.855846 7.806107,18.999796 
	C20.569773,18.999796 32.534885,18.999796 45.000000,18.999796 
z"/>
</svg>