<svg version="1.1" id="Layer_1" xmlns="http://www.w3.org/2000/svg" xmlns:xlink="http://www.w3.org/1999/xlink" x="0px" y="0px"
	 width="100%" viewBox="0 0 100 100" enable-background="new 0 0 100 100" xml:space="preserve">

<path fill="#358FC8" opacity="1.000000" stroke="none" 
	d="
M63.078323,91.016251 
	C40.946468,77.735680 23.224108,60.531368 10.730146,38.218922 
	C9.237217,35.552765 8.189896,32.571266 7.348323,29.618429 
	C4.740711,20.469063 15.289266,6.651671 24.610996,7.112319 
	C26.196676,7.190677 28.181068,8.375685 29.169632,9.669548 
	C32.338566,13.817160 35.121395,18.259340 38.062870,22.581280 
	C42.131111,28.558775 42.333111,32.325401 38.104767,38.231430 
	C36.216560,40.868820 36.169132,42.729061 38.421070,44.950775 
	C44.644772,51.090950 50.819946,57.280804 56.969933,63.494934 
	C59.125210,65.672684 60.990475,65.909218 63.686394,63.975647 
	C69.680199,59.676739 73.399467,59.851410 79.340981,63.853130 
	C83.267838,66.497940 87.247192,69.064758 91.176476,71.706017 
	C95.727257,74.765030 96.649078,78.694008 93.289688,83.145195 
	C90.516830,86.819214 87.624962,90.824020 83.849289,93.183693 
	C80.976128,94.979332 76.563828,95.091103 72.964996,94.716316 
	C69.703911,94.376709 66.616852,92.366051 63.078323,91.016251 
z"/>
</svg>