<svg version="1.1" id="Layer_1" xmlns="http://www.w3.org/2000/svg" xmlns:xlink="http://www.w3.org/1999/xlink" x="0px" y="0px"
	 width="100%" viewBox="0 0 100 100" enable-background="new 0 0 100 100" xml:space="preserve">

<path fill="#358FC8" opacity="1.000000" stroke="none" 
	d="
M35.750710,26.249292 
	C32.085030,22.583973 28.700350,19.136868 25.242630,15.764656 
	C22.986250,13.564075 21.120741,10.806482 23.578846,8.240236 
	C26.083826,5.625053 29.163385,6.591062 31.751429,9.200706 
	C43.714314,21.263439 55.751328,33.252678 67.767769,45.262260 
	C68.552246,46.046288 69.386772,46.780224 71.000328,48.286354 
	C71.000328,35.428349 70.975975,23.530195 71.012985,11.632232 
	C71.026718,7.218664 72.992775,5.498871 76.516953,7.137112 
	C77.707031,7.690325 78.888535,9.757136 78.895813,11.138417 
	C79.035355,37.621811 78.938507,64.106445 79.079086,90.589828 
	C79.095894,93.756790 77.656967,95.690262 75.102921,95.707703 
	C72.198334,95.727531 70.847633,93.646202 70.911995,90.297211 
	C71.138901,78.491295 71.000244,66.678360 71.000244,54.025074 
	C69.435699,55.363499 68.335579,56.186024 67.372826,57.146263 
	C55.461552,69.026451 43.622173,80.979675 31.604650,92.751122 
	C30.189632,94.137177 27.621000,95.560783 25.939327,95.221489 
	C21.646463,94.355324 21.221542,90.349800 24.872717,86.665855 
	C35.308037,76.136856 45.798782,65.662445 56.326656,55.226006 
	C57.609829,53.953979 59.252636,53.044743 61.176025,51.640926 
	C52.192310,42.669235 44.096508,34.584267 35.750710,26.249292 
z"/>
</svg>