<svg version="1.1" id="Layer_1" xmlns="http://www.w3.org/2000/svg" xmlns:xlink="http://www.w3.org/1999/xlink" x="0px" y="0px"
	 width="100%" viewBox="0 0 100 100" enable-background="new 0 0 100 100" xml:space="preserve">

<path fill="#358FC8" opacity="1.000000" stroke="none" 
	d="
M74.222565,7.779202 
	C75.763062,11.424272 74.766632,13.893450 72.181564,16.408581 
	C60.620953,27.656425 49.255211,39.104553 37.562195,50.735920 
	C38.908531,52.206184 39.953510,53.435490 41.089417,54.574081 
	C51.671543,65.181152 62.262901,75.779030 72.867386,86.363754 
	C75.270424,88.762306 76.832169,91.485344 74.014999,94.326355 
	C71.243706,97.121101 68.770073,95.285896 66.520027,93.028076 
	C54.064098,80.529091 41.577110,68.061043 29.093651,55.589523 
	C25.899166,52.398090 26.073263,49.365303 29.246006,46.212608 
	C41.408546,34.126953 53.588696,22.057219 65.592667,9.815236 
	C68.116608,7.241251 70.577522,6.235324 74.222565,7.779202 
z"/>
</svg>