<svg version="1.1" id="Layer_1" xmlns="http://www.w3.org/2000/svg" xmlns:xlink="http://www.w3.org/1999/xlink" x="0px" y="0px"
	 width="100%" viewBox="0 0 100 100" enable-background="new 0 0 100 100" xml:space="preserve">

<path fill="#358FC8" opacity="1.000000" stroke="none" 
	d="
M62.750832,85.249397 
	C52.298721,74.793846 42.096642,64.588364 30.998890,53.486916 
	C30.998890,66.736809 31.078234,78.801659 30.893997,90.862473 
	C30.872066,92.298088 29.730061,94.225060 28.519279,94.975029 
	C27.529982,95.587799 25.420025,95.179886 24.267357,94.473343 
	C23.448477,93.971390 23.054285,92.220291 23.051346,91.025284 
	C22.985785,64.376518 22.937817,37.727016 23.161625,11.079968 
	C23.174732,9.519146 25.373304,6.849640 26.790142,6.681747 
	C29.138731,6.403443 31.175276,7.687541 31.098886,11.193024 
	C30.837990,23.165539 30.998947,35.147247 30.998947,47.974106 
	C32.558506,46.640396 33.657188,45.819736 34.618092,44.860989 
	C46.408096,33.097408 58.228119,21.363037 69.913681,9.496353 
	C72.471626,6.898766 75.639702,5.509740 78.072128,7.982678 
	C80.506126,10.457211 79.040291,13.592661 76.446724,16.144464 
	C64.835098,27.569134 53.374878,39.147682 41.497776,51.033154 
	C49.364193,58.887798 56.992718,66.503098 64.619057,74.120583 
	C68.507729,78.004745 72.371429,81.914200 76.286705,85.771324 
	C78.711937,88.160530 81.152199,90.862381 78.241699,94.055008 
	C74.827232,97.800453 72.178558,94.689262 69.713684,92.213234 
	C67.480972,89.970436 65.238846,87.737022 62.750832,85.249397 
z"/>
</svg>