<svg version="1.1" id="Layer_1" xmlns="http://www.w3.org/2000/svg" xmlns:xlink="http://www.w3.org/1999/xlink" x="0px" y="0px"
	 width="100%" viewBox="0 0 100 100" enable-background="new 0 0 100 100" xml:space="preserve">

<path fill="#358FC8" opacity="1.000000" stroke="none" 
	d="
M38.745918,89.753342 
	C37.199383,91.296303 35.883736,92.570480 34.612236,93.887283 
	C32.356155,96.223770 29.778885,95.852074 27.726217,94.038528 
	C25.520922,92.090141 26.349781,89.490303 28.024500,87.593391 
	C30.663063,84.604759 33.610378,81.888054 36.436756,79.066010 
	C45.620602,69.896255 54.808887,60.730946 64.442200,51.118137 
	C63.234978,49.849033 62.171154,48.682411 61.056580,47.566479 
	C50.470703,36.967705 39.819088,26.433344 29.351898,15.718760 
	C27.942514,14.276063 26.480368,11.801409 26.728765,10.042764 
	C27.287937,6.083874 31.620003,5.341111 34.956539,8.497630 
	C39.065582,12.384969 42.980270,16.477718 46.979813,20.480835 
	C55.332024,28.840513 63.689117,37.195316 72.035530,45.560772 
	C76.294914,49.829880 76.330025,52.145065 72.176132,56.306309 
	C61.123093,67.378891 50.057373,78.438805 38.745918,89.753342 
z"/>
</svg>