<?xml version="1.0" encoding="utf-8"?>
<!-- Generator: Adobe Illustrator 18.0.0, SVG Export Plug-In . SVG Version: 6.00 Build 0)  -->
<!DOCTYPE svg PUBLIC "-//W3C//DTD SVG 1.1//EN" "http://www.w3.org/Graphics/SVG/1.1/DTD/svg11.dtd">
<svg version="1.1" id="Layer_1" xmlns="http://www.w3.org/2000/svg" xmlns:xlink="http://www.w3.org/1999/xlink" x="0px" y="0px"
	 viewBox="64.8 11.6 75 77.8" enable-background="new 64.8 11.6 75 77.8" xml:space="preserve">
<g>
	<path fill="#358FC8" d="M138.5,76.4L138.5,76.4L138.5,76.4l-18.8-18.8c3-4.7,4.8-10.2,4.8-16.2c0-16.5-13.4-29.9-29.9-29.9
		S64.8,25,64.8,41.5s13.4,29.9,29.9,29.9c4.5,0,8.9-1,12.7-2.8l19.5,19.5c0.1,0.1,0.3,0.2,0.4,0.3c0.8,0.7,1.9,1,3,1
		c0.6,0,1-0.1,1.6-0.2c1.7-0.4,3.4-1.5,4.8-2.8C140,83.1,140.8,78.8,138.5,76.4z M68.9,41.5c0-14.3,11.6-25.8,25.8-25.8
		c14.1,0,25.7,11.6,25.7,25.8s-11.6,25.7-25.7,25.7C80.4,67.2,68.9,55.6,68.9,41.5z M133.9,83.5c-0.9,0.9-1.9,1.5-2.9,1.7
		c-0.7,0.1-1.1,0.1-1.2-0.1c-0.1-0.1-0.1-0.1-0.2-0.2l-18.4-18.4c2.2-1.6,4.4-3.4,6.2-5.4l18.3,18.3l0,0
		C135.9,79.7,135.8,81.6,133.9,83.5z"/>
</g>
</svg>
